<?xml version="1.0" encoding="iso-8859-1"?>
<!-- Generator: Adobe Illustrator 19.0.0, SVG Export Plug-In . SVG Version: 6.00 Build 0)  -->
<svg version="1.1" id="Layer_1" xmlns="http://www.w3.org/2000/svg" xmlns:xlink="http://www.w3.org/1999/xlink" x="0px" y="0px"
	 viewBox="0 0 512 512" style="enable-background:new 0 0 512 512;" xml:space="preserve">
<g>
	<g>
		<path d="M435.027,388.696c-0.166-0.405-0.337-0.81-0.511-1.213c-0.004-0.01-0.009-0.02-0.013-0.03L271.326,10.066
			c-0.069-0.159-0.155-0.305-0.227-0.461c-0.126-0.267-0.253-0.533-0.393-0.795c-0.126-0.236-0.26-0.464-0.396-0.692
			c-0.143-0.238-0.288-0.474-0.442-0.706c-0.152-0.229-0.312-0.451-0.475-0.67c-0.16-0.217-0.325-0.43-0.496-0.639
			c-0.174-0.211-0.353-0.416-0.535-0.618c-0.184-0.203-0.371-0.402-0.564-0.595c-0.188-0.188-0.381-0.37-0.577-0.547
			c-0.208-0.189-0.42-0.374-0.638-0.553c-0.201-0.165-0.407-0.323-0.617-0.478c-0.227-0.169-0.457-0.335-0.696-0.493
			c-0.221-0.148-0.449-0.287-0.677-0.424c-0.237-0.143-0.475-0.283-0.721-0.414c-0.249-0.134-0.503-0.254-0.758-0.374
			c-0.164-0.077-0.318-0.167-0.485-0.239c-0.083-0.036-0.169-0.06-0.253-0.095c-0.256-0.106-0.516-0.197-0.778-0.29
			c-0.265-0.095-0.528-0.191-0.795-0.272c-0.237-0.071-0.478-0.128-0.717-0.188c-0.294-0.075-0.587-0.152-0.882-0.21
			c-0.225-0.045-0.452-0.071-0.679-0.107c-0.308-0.047-0.617-0.099-0.926-0.128c-0.237-0.023-0.476-0.028-0.715-0.041
			C256.587,0.021,256.289,0,255.993,0c-0.267,0-0.534,0.02-0.801,0.032c-0.268,0.013-0.536,0.02-0.802,0.046
			c-0.285,0.028-0.569,0.076-0.853,0.118c-0.25,0.038-0.502,0.069-0.751,0.118c-0.277,0.055-0.551,0.128-0.827,0.197
			c-0.258,0.065-0.516,0.126-0.77,0.201c-0.255,0.077-0.506,0.17-0.759,0.259c-0.272,0.096-0.542,0.191-0.808,0.302
			c-0.081,0.035-0.165,0.057-0.247,0.092c-0.164,0.071-0.314,0.159-0.474,0.234c-0.26,0.122-0.521,0.247-0.775,0.383
			c-0.242,0.129-0.474,0.266-0.707,0.405c-0.234,0.14-0.465,0.283-0.692,0.434c-0.233,0.155-0.457,0.317-0.68,0.482
			c-0.214,0.158-0.424,0.321-0.631,0.49c-0.214,0.176-0.421,0.356-0.626,0.541c-0.2,0.181-0.397,0.367-0.589,0.559
			c-0.19,0.19-0.374,0.385-0.553,0.583c-0.187,0.206-0.37,0.415-0.547,0.63c-0.168,0.205-0.328,0.415-0.486,0.627
			c-0.166,0.224-0.328,0.45-0.484,0.682c-0.152,0.228-0.295,0.461-0.435,0.696c-0.138,0.23-0.274,0.462-0.402,0.7
			c-0.139,0.259-0.265,0.524-0.391,0.79c-0.073,0.156-0.159,0.303-0.228,0.462L77.487,387.479c-0.006,0.013-0.012,0.026-0.018,0.039
			c-0.162,0.377-0.321,0.755-0.514,1.223c-3.058,7.51-4.608,15.277-4.608,23.085c0,28.953,20.645,55.219,58.13,73.961
			C164.285,502.69,208.863,512,256,512c47.137,0,91.715-9.31,125.523-26.213c37.485-18.743,58.13-45.01,58.13-73.961
			C439.654,404.014,438.103,396.245,435.027,388.696z M256.001,58.761l119.425,276.195c-2.47-1.124-4.997-2.222-7.594-3.282
			c-32.085-13.098-70.754-20.022-111.83-20.022s-79.746,6.924-111.83,20.022c-2.598,1.061-5.124,2.158-7.594,3.282L256.001,58.761z
			 M256.001,478.608c-88.552,0-150.262-35.196-150.262-66.783c0-3.519,0.701-6.952,2.106-10.403l0.29-0.689
			c11.673-26.998,67.463-55.692,147.867-55.692s136.194,28.693,147.867,55.69c0.002,0.003,0.003,0.007,0.004,0.01
			c0.091,0.21,0.18,0.423,0.25,0.591c1.441,3.538,2.142,6.97,2.142,10.492C406.263,443.413,344.552,478.608,256.001,478.608z"/>
	</g>
</g>
</svg>
