<?xml version="1.0" encoding="iso-8859-1"?>
<!-- Generator: Adobe Illustrator 16.0.0, SVG Export Plug-In . SVG Version: 6.00 Build 0)  -->
<!DOCTYPE svg PUBLIC "-//W3C//DTD SVG 1.1//EN" "http://www.w3.org/Graphics/SVG/1.1/DTD/svg11.dtd">
<svg version="1.1" id="Capa_1" xmlns="http://www.w3.org/2000/svg" xmlns:xlink="http://www.w3.org/1999/xlink" x="0px" y="0px"
	 width="111.67px" height="111.67px" viewBox="0 0 111.67 111.67" style="enable-background:new 0 0 111.67 111.67;"
	 xml:space="preserve">
<g>
	<path d="M71.869,7.011h-29v29h29V7.011z M66.869,31.011h-19v-19h19V31.011z M39.801,102.532h38.503L59.052,73.306L39.801,102.532z
		M49.082,97.532l9.97-15.137l9.972,15.137H49.082z M96.545,73.815c-8.34,0-15.125,6.785-15.125,15.125s6.785,15.125,15.125,15.125
		S111.67,97.28,111.67,88.94S104.885,73.815,96.545,73.815z M96.545,99.065c-5.583,0-10.125-4.543-10.125-10.125
		c0-5.584,4.542-10.125,10.125-10.125s10.125,4.541,10.125,10.125C106.67,94.522,102.128,99.065,96.545,99.065z M9.075,73.224
		L0,88.94l9.075,15.719h18.148l9.075-15.719l-9.075-15.717H9.075L9.075,73.224z M24.337,99.659H11.962L5.774,88.94l6.188-10.717
		h12.375l6.188,10.717L24.337,99.659z M20.63,69.808h-5V54.642h0.016v-2.346h40.456V40.963h5v11.333h37.991v2.346h0.002v15.166h-5
		V57.296H61.102v12.512h-5V57.296H20.63V69.808z"/>
</g>
</svg>
