<svg version="1.0" xmlns="http://www.w3.org/2000/svg"
 width="512.000000pt" height="512.000000pt" viewBox="0 0 512.000000 512.000000"
 preserveAspectRatio="xMidYMid meet">

<g transform="translate(0.000000,512.000000) scale(0.100000,-0.100000)" stroke="none">
<path d="M1349 4505 c-517 -71 -909 -383 -1063 -845 -63 -192 -94 -487 -66
-643 42 -240 217 -554 493 -887 388 -467 1034 -1057 1505 -1374 214 -143 310
-176 423 -143 242 71 1039 721 1522 1242 393 423 627 771 713 1060 80 269 15
705 -148 979 -203 345 -533 554 -968 612 -415 55 -760 -58 -1103 -360 l-97
-87 -97 86 c-340 303 -694 417 -1114 360z m353 -389 c252 -50 511 -226 677
-463 49 -70 118 -113 181 -113 62 0 130 42 180 112 184 256 453 432 717 470
160 23 398 -16 561 -93 310 -144 478 -414 498 -799 5 -90 3 -129 -10 -180 -33
-132 -158 -356 -309 -555 -283 -371 -805 -877 -1297 -1257 -119 -92 -321 -228
-337 -228 -17 0 -126 69 -228 143 -494 361 -1076 911 -1388 1312 -163 209
-298 447 -333 585 -13 51 -15 90 -10 180 20 373 181 643 472 788 182 92 446
133 626 98z"/>
</g>
</svg>
