<?xml version="1.0" standalone="no"?>
<!DOCTYPE svg PUBLIC "-//W3C//DTD SVG 20010904//EN"
 "http://www.w3.org/TR/2001/REC-SVG-20010904/DTD/svg10.dtd">
<svg version="1.0" xmlns="http://www.w3.org/2000/svg"
 width="500.000000pt" height="500.000000pt" viewBox="0 0 500.000000 500.000000"
 preserveAspectRatio="xMidYMid meet">

<g transform="translate(0.000000,500.000000) scale(0.100000,-0.100000)" stroke="none">
<path d="M2695 4933 c-16 -2 -73 -10 -127 -18 -336 -52 -668 -235 -864 -478
-37 -45 -69 -88 -71 -94 -3 -7 -28 -27 -56 -44 -83 -51 -266 -192 -352 -271
l-80 -73 65 75 c36 41 142 152 237 246 151 151 174 171 197 167 31 -6 66 20
66 49 0 22 -34 58 -55 58 -23 0 -55 -37 -55 -63 0 -17 -33 -54 -117 -133 -147
-137 -377 -392 -496 -549 -91 -122 -117 -153 -102 -125 38 70 180 289 255 395
92 130 272 359 290 370 15 9 12 35 -4 35 -23 0 -185 -121 -273 -204 -245 -231
-391 -505 -439 -820 -10 -64 -24 -117 -43 -155 -49 -97 -93 -202 -137 -326
-24 -66 -43 -114 -43 -107 -1 21 77 338 116 469 27 93 41 127 57 135 44 23 49
69 11 94 -23 15 -27 15 -50 0 -25 -17 -36 -68 -16 -80 5 -3 -2 -41 -15 -83
-96 -305 -181 -731 -197 -988 -2 -27 -4 4 -5 70 -3 207 26 541 69 788 23 134
22 127 6 127 -17 0 -94 -163 -132 -275 -46 -139 -66 -251 -72 -412 -9 -225 19
-389 97 -577 24 -57 32 -96 40 -196 11 -132 43 -340 63 -411 7 -23 19 -45 26
-47 16 -5 14 8 -13 133 -25 113 -45 280 -52 441 -5 122 -4 161 10 214 46 180
329 667 575 990 89 118 92 145 9 87 -194 -135 -378 -346 -484 -555 -24 -48
-44 -84 -44 -80 0 21 74 259 109 346 73 182 103 233 183 307 129 120 362 271
519 337 61 26 75 28 95 18 51 -28 101 19 74 69 -16 30 -65 28 -86 -4 -9 -13
-26 -27 -37 -31 -46 -14 -264 -127 -341 -178 -45 -29 -119 -83 -165 -120 l-84
-68 28 48 c44 77 90 120 240 219 235 156 486 290 775 416 85 37 154 71 152 76
-5 14 -131 5 -241 -18 -178 -36 -375 -115 -518 -208 -35 -22 -63 -37 -63 -32
0 13 175 173 267 244 99 76 253 177 346 226 107 56 186 65 567 65 301 0 533
-14 717 -44 55 -9 73 -7 73 9 0 13 -123 65 -247 105 -162 52 -273 69 -450 70
-163 1 -168 10 -14 27 184 21 440 -20 771 -122 110 -34 118 -38 134 -70 13
-27 59 -37 82 -18 18 15 18 63 -1 79 -10 8 -29 10 -53 6 -30 -4 -64 3 -142 29
-201 68 -475 125 -599 125 -33 0 -51 4 -45 9 16 15 172 32 359 38 197 6 352
-5 535 -38 96 -18 118 -25 133 -45 20 -26 65 -32 85 -12 7 7 12 24 12 38 0 14
-5 31 -12 38 -16 16 -63 15 -77 -2 -9 -11 -20 -12 -44 -5 -18 4 -90 18 -162
31 -113 19 -166 22 -405 22 -256 0 -285 -1 -420 -27 -80 -14 -156 -30 -170
-33 -14 -4 -23 -4 -20 -1 9 10 299 97 454 136 129 33 153 36 167 25 19 -17 61
-18 77 -2 7 7 12 24 12 38 0 14 -5 31 -12 38 -20 20 -65 14 -85 -11 -14 -19
-53 -32 -193 -67 -288 -71 -635 -192 -819 -285 -155 -78 -39 -6 199 123 116
63 320 153 490 217 85 32 161 63 167 68 31 23 -18 32 -112 20z m-26 -37 c-2
-3 -65 -30 -139 -61 -258 -109 -647 -307 -747 -382 -61 -45 -34 -6 52 75 183
174 427 298 680 346 44 8 89 17 100 19 29 7 59 8 54 3z m-119 -366 c94 -12
270 -52 340 -77 56 -20 76 -37 35 -29 -16 3 -86 11 -155 18 -139 14 -767 17
-815 5 -56 -15 -12 10 55 31 169 55 365 73 540 52z m-1242 -178 c-7 -9 -55
-73 -107 -142 -151 -201 -291 -417 -391 -603 -58 -108 -64 -92 -19 50 76 239
230 468 429 640 82 71 115 91 88 55z m497 -241 c-6 -5 -44 -23 -85 -41 -198
-86 -484 -240 -675 -364 -60 -40 -117 -76 -124 -81 -32 -19 33 56 109 129 198
185 482 319 780 365 2 1 0 -3 -5 -8z m-913 -959 c-144 -200 -313 -481 -414
-687 l-40 -80 7 50 c20 145 99 335 207 496 59 89 301 349 313 337 3 -3 -30
-55 -73 -116z m-478 21 c-32 -216 -47 -427 -48 -680 -1 -144 -4 -258 -9 -254
-4 4 -19 52 -34 107 -24 91 -27 115 -27 299 -1 214 8 281 61 448 25 80 59 167
66 167 2 0 -2 -39 -9 -87z m73 -345 c-3 -8 -6 -5 -6 6 -1 11 2 17 5 13 3 -3 4
-12 1 -19z"/>
<path d="M4410 4241 c-23 -44 -5 -81 40 -81 14 0 31 5 38 12 7 7 12 24 12 38
0 14 -5 31 -12 38 -19 19 -66 15 -78 -7z"/>
<path d="M3020 3949 c-239 -37 -671 -105 -960 -149 -289 -45 -534 -85 -546
-90 -14 -6 -52 -76 -129 -241 -153 -333 -714 -1555 -717 -1566 -2 -4 213 -285
477 -623 265 -338 541 -693 615 -787 78 -101 141 -173 150 -173 9 0 293 31
631 69 338 39 781 88 984 111 204 23 373 44 376 48 4 4 167 412 364 906 287
720 356 903 349 921 -12 30 -1145 1645 -1153 1644 -3 -1 -202 -32 -441 -70z
m86 -174 c-10 -8 -277 -144 -593 -302 l-573 -288 -20 25 c-96 124 -251 342
-246 347 3 4 284 50 624 104 339 53 660 103 712 112 121 19 118 19 96 2z m167
-57 c-51 -129 -382 -931 -386 -934 -4 -4 -845 342 -856 352 -5 4 1231 623
1246 623 10 1 8 -10 -4 -41z m361 -676 c109 -354 196 -645 193 -648 -4 -4
-793 319 -804 329 -2 2 10 35 26 73 30 70 345 839 362 883 6 14 13 20 18 15 4
-5 97 -298 205 -652z m-1899 277 c133 -178 135 -182 118 -202 -32 -37 -694
-760 -780 -851 -46 -49 -83 -84 -83 -79 0 5 35 86 79 179 96 207 465 1009 497
1082 13 28 26 52 29 52 3 0 66 -82 140 -181z m165 -304 c0 -8 54 -441 120
-962 66 -521 119 -956 118 -966 -2 -14 -137 72 -618 398 -338 230 -621 423
-629 430 -11 11 70 104 490 564 277 303 507 551 512 551 4 0 7 -7 7 -15z
m2499 -742 c-6 -16 -35 -93 -66 -173 -81 -215 -433 -1091 -450 -1120 -13 -23
-14 -17 -9 65 30 552 70 1211 73 1215 4 4 347 36 425 39 37 1 37 1 27 -26z
m-544 -130 c-3 -32 -12 -182 -21 -333 -26 -480 -64 -1084 -68 -1088 -4 -3
-762 138 -1204 225 -134 26 -244 52 -245 57 -2 9 1520 1194 1535 1195 4 1 5
-25 3 -56z m-1400 -1258 c550 -105 1022 -197 1035 -202 8 -3 11 -7 5 -9 -5 -2
-287 -35 -625 -73 -823 -93 -831 -94 -836 -89 -2 3 35 88 82 189 47 101 90
195 95 208 7 17 15 22 32 18 12 -3 108 -22 212 -42z"/>
<path d="M595 1110 c-37 -41 11 -101 63 -77 48 22 31 97 -23 97 -12 0 -30 -9
-40 -20z"/>
<path d="M967 559 c-31 -18 -40 -48 -22 -75 28 -43 95 -22 95 30 0 36 -42 62
-73 45z"/>
</g>
</svg>
