<?xml version="1.0" ?><svg width="20px" height="20px" viewBox="0 0 20 20" version="1.1" xmlns="http://www.w3.org/2000/svg"><g id="layer1"><path d="M 10 1 L 8.4121094 5.9199219 L 4.0351562 3.171875 L 5.9804688 7.9589844 L 0.86132812 8.6679688 L 5.4296875 11.085938 L 1.9628906 14.919922 L 7.0175781 13.833984 L 6.8261719 19 L 10 14.919922 L 13.173828 19 L 12.982422 13.833984 L 18.035156 14.919922 L 14.568359 11.085938 L 19.138672 8.6679688 L 14.017578 7.9589844 L 15.964844 3.171875 L 11.585938 5.9199219 L 10 1 z M 10 4.2578125 L 11.029297 7.4511719 L 13.871094 5.6660156 L 12.607422 8.7753906 L 15.929688 9.234375 L 12.964844 10.802734 L 15.214844 13.291016 L 11.935547 12.585938 L 12.060547 15.939453 L 10 13.291016 L 7.9394531 15.939453 L 8.0644531 12.585938 L 4.7832031 13.291016 L 7.0332031 10.802734 L 4.0703125 9.234375 L 7.3925781 8.7753906 L 6.1289062 5.6660156 L 8.96875 7.4511719 L 10 4.2578125 z " style="fill-opacity:1; stroke:none; stroke-width:0px;"/></g></svg>